HIERARCHY
ROOT Pelvis
{
	OFFSET 0.000000 0.000000 0.000000
	CHANNELS 6 Xposition Yposition Zposition Xrotation Yrotation Zrotation
	JOINT LeftUpLeg_virtual
	{
		OFFSET 0.000000 0.000000 0.000000
		CHANNELS 3 Xrotation Yrotation Zrotation
		JOINT LeftUpLeg
		{
			OFFSET 18.735201 -5.666702 -4.541200
			CHANNELS 3 Xrotation Yrotation Zrotation
			JOINT LeftLeg
			{
				OFFSET -0.021200 -31.938179 0.493100
				CHANNELS 3 Xrotation Yrotation Zrotation
				JOINT LeftFoot
				{
					OFFSET 0.021200 -31.938179 -4.336299
					CHANNELS 3 Xrotation Yrotation Zrotation
					JOINT LeftToeBase
					{
						OFFSET 0.943001 -26.722000 15.023500
						CHANNELS 3 Xrotation Yrotation Zrotation
						End Site
						{
							OFFSET 0 0 0
						}
					}
				}
			}
		}
	}
	JOINT RightUpLeg_virtual
	{
		OFFSET 0.000000 0.000000 0.000000
		CHANNELS 3 Xrotation Yrotation Zrotation
		JOINT RightUpLeg
		{
			OFFSET -18.735201 -5.666702 -4.541200
			CHANNELS 3 Xrotation Yrotation Zrotation
			JOINT RightLeg
			{
				OFFSET 0.018946 -31.938133 0.493100
				CHANNELS 3 Xrotation Yrotation Zrotation
				JOINT RightFoot
				{
					OFFSET -0.018946 -31.938126 -4.336299
					CHANNELS 3 Xrotation Yrotation Zrotation
					JOINT RightToeBase
					{
						OFFSET -0.943001 -26.722004 15.023500
						CHANNELS 3 Xrotation Yrotation Zrotation
						End Site
						{
							OFFSET 0 0 0
						}
					}
				}
			}
		}
	}
	JOINT Hips_virtual
	{
		OFFSET 0.000000 0.000000 0.000000
		CHANNELS 3 Xrotation Yrotation Zrotation
		JOINT Hips
		{
			OFFSET -0.000000 -0.000000 -0.000000
			CHANNELS 3 Xrotation Yrotation Zrotation
			JOINT Spine
			{
				OFFSET 0.000000 10.199997 -0.299500
				CHANNELS 3 Xrotation Yrotation Zrotation
				JOINT Spine1
				{
					OFFSET 0.000000 11.900002 -1.516600
					CHANNELS 3 Xrotation Yrotation Zrotation
					JOINT Spine2
					{
						OFFSET 0.000000 13.600006 -2.842500
						CHANNELS 3 Xrotation Yrotation Zrotation
						JOINT Neck_virtual
						{
							OFFSET 0.000000 0.000000 0.000000
							CHANNELS 3 Xrotation Yrotation Zrotation
							JOINT Neck
							{
								OFFSET 0.000000 9.624100 -2.890100
								CHANNELS 3 Xrotation Yrotation Zrotation
								JOINT Head
								{
									OFFSET 0.000000 14.068802 -1.351900
									CHANNELS 3 Xrotation Yrotation Zrotation
									End Site
									{
										OFFSET 0 0 0
									}
								}
							}
						}
						JOINT LeftShoulder_virtual
						{
							OFFSET 0.000000 0.000000 0.000000
							CHANNELS 3 Xrotation Yrotation Zrotation
							JOINT LeftShoulder
							{
								OFFSET 15.263000 10.923401 -0.547700
								CHANNELS 3 Xrotation Yrotation Zrotation
								JOINT LeftArm
								{
									OFFSET 25.438599 -2.830597 -13.032500
									CHANNELS 3 Xrotation Yrotation Zrotation
									JOINT LeftForeArm
									{
										OFFSET 29.960503 0.000000 0.000000
										CHANNELS 3 Xrotation Yrotation Zrotation
										JOINT LeftHand
										{
											OFFSET 27.849251 0.000000 0.000000
											CHANNELS 3 Xrotation Yrotation Zrotation
											End Site
											{
												OFFSET 0 0 0
											}
										}
									}
								}
							}
						}
						JOINT RightShoulder_virtual
						{
							OFFSET 0.000000 0.000000 0.000000
							CHANNELS 3 Xrotation Yrotation Zrotation
							JOINT RightShoulder
							{
								OFFSET -15.263000 10.923401 -0.547700
								CHANNELS 3 Xrotation Yrotation Zrotation
								JOINT RightArm
								{
									OFFSET -25.438599 -2.830597 -13.032500
									CHANNELS 3 Xrotation Yrotation Zrotation
									JOINT RightForeArm
									{
										OFFSET -29.960503 0.000000 0.000000
										CHANNELS 3 Xrotation Yrotation Zrotation
										JOINT RightHand
										{
											OFFSET -27.849251 0.000000 0.000000
											CHANNELS 3 Xrotation Yrotation Zrotation
											End Site
											{
												OFFSET 0 0 0
											}
										}
									}
								}
							}
						}
					}
				}
			}
		}
	}
}
MOTION
Frames: 10
Frame Time: 0.03333333
9.653291 94.807121 0.458170 0.000000 0.000000 0.000000 -0.400632 -19.208189 -2.210074 -10.874544 7.086365 -2.754144 22.681976 9.687350 2.922705 -14.135217 19.351982 1.823780 0.000000 0.000000 0.000000 -0.400632 -19.208189 -2.210074 -12.927835 -7.130747 -12.971057 15.525232 3.155188 2.552913 -14.025665 -4.011337 7.505991 0.000000 0.000000 0.000000 -0.400632 -19.208189 -2.210074 0.000000 -0.000001 0.000000 4.348728 1.231104 -2.470964 0.212745 0.451137 -0.248040 0.000000 0.000000 0.000000 0.209997 0.457549 -0.249456 -0.267654 0.154069 1.295297 0.000000 0.000000 0.000000 0.209997 0.457549 -0.249456 2.666471 -4.458575 -11.991965 -11.925376 -18.438342 -60.942629 0.000005 -15.296893 0.000013 0.000000 0.000000 0.000000 0.209997 0.457549 -0.249456 2.229752 0.128998 15.927383 5.674424 -0.408656 64.436954 0.000006 15.408096 -0.000001 0.000000 0.000000 0.000000 
9.873977 94.798584 0.558165 0.000000 0.000000 0.000000 -0.322713 -19.508649 -2.313599 -10.914404 7.084999 -2.857708 22.687670 9.694114 2.933784 -14.183072 19.629229 2.003875 0.000000 0.000000 0.000000 -0.322713 -19.508649 -2.313599 -12.878977 -7.118815 -12.901924 15.255900 3.223777 2.551713 -14.148918 -4.000598 7.331750 0.000000 0.000000 0.000000 -0.322713 -19.508649 -2.313599 0.000000 -0.000001 0.000000 4.286812 0.975919 -2.547276 0.189584 0.383775 -0.265577 0.000000 0.000000 0.000000 0.187299 0.390526 -0.267591 -0.280178 0.172691 1.336893 0.000000 0.000000 0.000000 0.187299 0.390526 -0.267591 2.653988 -4.597931 -11.892587 -12.075093 -19.153003 -61.241218 0.000008 -15.715092 0.000015 0.000000 0.000000 0.000000 0.187299 0.390526 -0.267591 2.263677 -0.037344 16.070484 5.438916 -0.171347 64.671503 -0.000004 15.685821 0.000012 0.000000 0.000000 0.000000 
10.081861 94.789642 0.654671 0.000000 0.000000 0.000000 -0.220615 -19.792570 -2.397180 -10.967356 7.078680 -2.964736 22.671862 9.699711 2.945179 -14.225745 19.902456 2.179448 0.000000 0.000000 0.000000 -0.220615 -19.792570 -2.397180 -12.842740 -7.108014 -12.838679 14.996797 3.247931 2.537624 -14.289601 -3.994145 7.179969 0.000000 0.000000 0.000000 -0.220615 -19.792570 -2.397180 0.000000 0.000001 0.000000 4.210714 0.703814 -2.647215 0.165081 0.312362 -0.289361 0.000000 0.000000 0.000000 0.163354 0.319514 -0.292050 -0.293527 0.189541 1.380713 0.000000 0.000000 0.000000 0.163354 0.319514 -0.292050 2.633634 -4.716147 -11.762446 -12.145296 -19.959018 -61.514630 -0.000013 -16.226668 -0.000004 0.000000 0.000000 0.000000 0.163354 0.319514 -0.292050 2.301185 -0.222081 16.229417 5.160329 0.078143 64.897814 0.000000 15.935554 0.000004 0.000000 0.000000 0.000000 
10.277731 94.781372 0.748096 0.000000 0.000000 0.000000 -0.084317 -20.068144 -2.463865 -11.042824 7.059991 -3.083362 22.641088 9.705624 2.973172 -14.285698 20.188367 2.352246 0.000000 0.000000 0.000000 -0.084317 -20.068144 -2.463865 -12.827063 -7.095651 -12.769530 14.719696 3.251769 2.522149 -14.409367 -3.986272 7.025995 0.000000 0.000000 0.000000 -0.084317 -20.068144 -2.463865 0.000000 0.000001 0.000000 4.111848 0.426166 -2.769201 0.138035 0.240252 -0.315975 0.000000 0.000000 0.000000 0.136931 0.247833 -0.319407 -0.307648 0.204390 1.426396 0.000000 0.000000 0.000000 0.136931 0.247833 -0.319407 2.611131 -4.805601 -11.630852 -12.175094 -20.855185 -61.745265 -0.000001 -16.823726 0.000003 0.000000 0.000000 0.000000 0.136931 0.247833 -0.319407 2.342156 -0.439309 16.405414 4.855272 0.354266 65.099175 -0.000002 16.165734 -0.000006 0.000000 0.000000 0.000000 
10.461012 94.774567 0.838848 0.000000 0.000000 0.000000 0.091559 -20.337194 -2.519561 -11.153666 7.031672 -3.201851 22.606140 9.712058 3.018280 -14.362658 20.478854 2.518204 0.000000 0.000000 0.000000 0.091559 -20.337194 -2.519561 -12.829401 -7.082274 -12.682624 14.395723 3.243085 2.513980 -14.473185 -3.973034 6.855694 0.000000 0.000000 0.000000 0.091559 -20.337194 -2.519561 0.000000 0.000000 0.000000 3.984582 0.153097 -2.910128 0.108365 0.169807 -0.345939 0.000000 0.000000 0.000000 0.107950 0.177826 -0.350153 -0.321894 0.216291 1.475471 0.000000 0.000000 0.000000 0.107950 0.177826 -0.350153 2.588619 -4.869842 -11.506930 -12.196950 -21.829836 -61.937207 -0.000008 -17.471484 -0.000009 0.000000 0.000000 0.000000 0.107950 0.177826 -0.350153 2.389270 -0.693202 16.609289 4.537148 0.660915 65.259562 0.000003 16.375640 -0.000016 0.000000 0.000000 0.000000 
10.630892 94.769203 0.927832 0.000000 0.000000 0.000000 0.301819 -20.594899 -2.569469 -11.302108 7.002123 -3.303055 22.574154 9.718152 3.069551 -14.442083 20.755408 2.672293 0.000000 0.000000 0.000000 0.301819 -20.594899 -2.569469 -12.836673 -7.070242 -12.574214 14.013844 3.212133 2.512097 -14.471083 -3.954475 6.674684 0.000000 0.000000 0.000000 0.301819 -20.594899 -2.569469 0.000000 0.000000 0.000000 3.831740 -0.110293 -3.067059 0.077692 0.101781 -0.381621 0.000000 0.000000 0.000000 0.078039 0.110219 -0.386651 -0.335553 0.224482 1.529043 0.000000 0.000000 0.000000 0.078039 0.110219 -0.386651 2.564871 -4.926236 -11.379771 -12.213197 -22.862860 -62.107825 0.000010 -18.142149 0.000017 0.000000 0.000000 0.000000 0.078039 0.110219 -0.386651 2.444019 -0.976152 16.846293 4.202607 0.971069 65.380674 -0.000003 16.547042 0.000005 0.000000 0.000000 0.000000 
10.787355 94.764397 1.016167 0.000000 0.000000 0.000000 0.532131 -20.834701 -2.616647 -11.478298 6.973980 -3.382711 22.548881 9.722585 3.122680 -14.510706 21.011359 2.809264 0.000000 0.000000 0.000000 0.532131 -20.834701 -2.616647 -12.828661 -7.062399 -12.451717 13.581855 3.148120 2.510094 -14.427480 -3.935500 6.508439 0.000000 0.000000 0.000000 0.532131 -20.834701 -2.616647 0.000000 0.000000 0.000000 3.665756 -0.366621 -3.237223 0.048453 0.035361 -0.422422 0.000000 0.000000 0.000000 0.049647 0.044187 -0.428282 -0.348470 0.229384 1.585517 0.000000 0.000000 0.000000 0.049647 0.044187 -0.428282 2.538560 -4.996352 -11.236845 -12.203161 -23.916053 -62.274810 -0.000009 -18.845185 -0.000016 0.000000 0.000000 0.000000 0.049647 0.044187 -0.428282 2.503074 -1.271408 17.102498 3.843676 1.244930 65.482717 -0.000004 16.670665 0.000002 0.000000 0.000000 0.000000 
10.930669 94.758904 1.104261 0.000000 0.000000 0.000000 0.769201 -21.051992 -2.659586 -11.668471 6.939713 -3.454061 22.524598 9.728303 3.188195 -14.555193 21.258380 2.922018 0.000000 0.000000 0.000000 0.769201 -21.051992 -2.659586 -12.790624 -7.058863 -12.328749 13.118836 3.047282 2.499340 -14.382732 -3.923248 6.390133 0.000000 0.000000 0.000000 0.769201 -21.051992 -2.659586 0.000000 -0.000001 0.000000 3.500759 -0.626619 -3.422231 0.022330 -0.031754 -0.465055 0.000000 0.000000 0.000000 0.024468 -0.022557 -0.471772 -0.361355 0.232422 1.642947 0.000000 0.000000 0.000000 0.024468 -0.022557 -0.471772 2.509613 -5.095768 -11.074054 -12.150980 -24.926308 -62.453781 -0.000006 -19.610598 -0.000002 0.000000 0.000000 0.000000 0.024468 -0.022557 -0.471772 2.560599 -1.559609 17.353800 3.473530 1.478865 65.585082 -0.000003 16.772713 -0.000035 0.000000 0.000000 0.000000 
11.060009 94.751587 1.191650 0.000000 0.000000 0.000000 1.011484 -21.242638 -2.691465 -11.869044 6.890176 -3.530684 22.489957 9.733986 3.275636 -14.558412 21.508322 3.004604 0.000000 0.000000 0.000000 1.011484 -21.242638 -2.691465 -12.727905 -7.056085 -12.216243 12.645898 2.907812 2.471792 -14.356212 -3.922021 6.340068 0.000000 0.000000 0.000000 1.011484 -21.242638 -2.691465 0.000000 -0.000001 0.000000 3.341488 -0.904641 -3.630754 -0.000236 -0.102657 -0.507739 0.000000 0.000000 0.000000 0.002964 -0.093057 -0.515360 -0.375334 0.234815 1.702145 0.000000 0.000000 0.000000 0.002964 -0.093057 -0.515360 2.475102 -5.227726 -10.890656 -12.060459 -25.828949 -62.657130 0.000008 -20.450457 0.000008 0.000000 0.000000 0.000000 0.002964 -0.093057 -0.515360 2.613132 -1.829994 17.585589 3.121777 1.709663 65.690813 -0.000003 16.890754 0.000010 0.000000 0.000000 0.000000 
11.174056 94.742287 1.277426 0.000000 0.000000 0.000000 1.266966 -21.400656 -2.706053 -12.087549 6.826949 -3.609187 22.438010 9.738716 3.377666 -14.507633 21.751475 3.056457 0.000000 0.000000 0.000000 1.266966 -21.400656 -2.706053 -12.657619 -7.054039 -12.118437 12.166846 2.730429 2.428730 -14.326298 -3.930034 6.350771 0.000000 0.000000 0.000000 1.266966 -21.400656 -2.706053 0.000000 0.000003 0.000000 3.183426 -1.211482 -3.872115 -0.019428 -0.179948 -0.551817 0.000000 0.000000 0.000000 -0.014991 -0.169971 -0.560421 -0.391463 0.236462 1.765836 0.000000 0.000000 0.000000 -0.014991 -0.169971 -0.560421 2.436494 -5.385620 -10.682942 -11.942646 -26.599489 -62.886405 0.000004 -21.342407 0.000002 0.000000 0.000000 0.000000 -0.014991 -0.169971 -0.560421 2.661032 -2.083256 17.798991 2.809272 1.971687 65.790595 -0.000002 17.037750 0.000013 0.000000 0.000000 0.000000 
